<?xml version="1.0" encoding="utf-8"?>
<!-- Generator: Adobe Illustrator 16.2.0, SVG Export Plug-In . SVG Version: 6.00 Build 0)  -->
<!DOCTYPE svg PUBLIC "-//W3C//DTD SVG 1.1//EN" "http://www.w3.org/Graphics/SVG/1.1/DTD/svg11.dtd">
<svg version="1.1" id="Layer_1" xmlns="http://www.w3.org/2000/svg" xmlns:xlink="http://www.w3.org/1999/xlink" x="0px" y="0px"
	 width="79px" height="88px" viewBox="0 0 79 88" enable-background="new 0 0 79 88" xml:space="preserve">
<g>
	<g opacity="0.75">
		<rect x="24.527" y="32.778" fill="#C76C9D" width="31" height="5"/>
		<rect x="25.527" y="40.778" fill="#C76C9D" width="29" height="19"/>
		<path fill="#C76C9D" d="M40.168,32.778c-2.586,0-4.987-0.037-6.749-1.431c-0.89-0.696-2.352-1.761-2.161-3.441
			c0.16-1.396,1.297-2.307,3.115-2.836c2.723-0.783,4.801,1.504,5.839,3.819c0.253,0.572,0.437,1.196,0.62,1.761
			c0.082,0.261,0.168,0.549,0.257,0.811l0.047,0.142c0.193,0.526,0.652,1.777-0.374,2.527l-0.521-1.435l0.008,0.083
			C40.219,32.778,40.193,32.778,40.168,32.778z M35.474,26.857c-0.194,0-0.4,0.021-0.608,0.085c-0.412,0.117-1.75,0.575-1.857,1.526
			c-0.068,0.595,0.494,1.428,1.499,2.224c1.302,1.021,3.116,1.646,5.056,1.758c-0.031-0.086-0.06-0.167-0.084-0.231l-0.053-0.157
			c-0.1-0.279-0.189-0.556-0.273-0.83c-0.174-0.539-0.338-1.052-0.552-1.535C38.281,28.981,37.183,26.857,35.474,26.857z"/>
		<path fill="#C76C9D" d="M40.317,32.778c-0.026,0-0.053,0-0.077,0l0.008-0.078l-0.514,1.814c-1.072-0.76-0.596-1.736-0.387-1.736
			H39.4c0.092-1,0.182-1.171,0.271-1.431c0.185-0.569,0.381-1.48,0.646-2.05c1.078-2.314,3.23-4.667,6.037-3.887
			c1.892,0.525,3.071,1.542,3.241,2.929c0.202,1.7-1.329,2.363-2.256,3.065C45.505,32.786,43.013,32.778,40.317,32.778z
			 M45.227,26.851c-1.822,0-2.977,2.145-3.309,2.861c-0.225,0.479-0.396,0.994-0.576,1.531c-0.094,0.277-0.184,0.553-0.283,0.827
			l-0.063,0.168c-0.021,0.059-0.056,0.135-0.082,0.215c2.061-0.104,3.988-0.737,5.363-1.777c1.039-0.779,1.635-1.625,1.564-2.207
			c-0.109-0.941-1.521-1.403-1.95-1.522C45.66,26.878,45.436,26.851,45.227,26.851z"/>
	</g>
	<g>
		<g>
			<g>
				<rect x="23.527" y="31.778" fill="#FFFFFF" width="31" height="5"/>
				<rect x="24.527" y="39.778" fill="#FFFFFF" width="29" height="19"/>
				<path fill="#FFFFFF" d="M39.168,31.778c-2.586,0-4.987-0.037-6.749-1.431c-0.89-0.696-2.352-1.761-2.161-3.441
					c0.16-1.396,1.297-2.307,3.115-2.836c2.723-0.783,4.801,1.504,5.839,3.819c0.253,0.572,0.437,1.196,0.62,1.761
					c0.082,0.261,0.168,0.549,0.257,0.811l0.047,0.142c0.193,0.526,0.652,1.777-0.374,2.527l-0.521-1.435l0.008,0.083
					C39.219,31.778,39.193,31.778,39.168,31.778z M34.474,25.857c-0.194,0-0.4,0.021-0.608,0.085
					c-0.412,0.117-1.75,0.575-1.857,1.526c-0.068,0.595,0.494,1.428,1.499,2.224c1.302,1.021,3.116,1.646,5.056,1.758
					c-0.031-0.086-0.06-0.167-0.084-0.231l-0.053-0.157c-0.1-0.279-0.189-0.556-0.273-0.83c-0.174-0.539-0.338-1.052-0.552-1.535
					C37.281,27.981,36.183,25.857,34.474,25.857z"/>
				<path fill="#FFFFFF" d="M39.317,31.778c-0.026,0-0.053,0-0.077,0l0.008-0.078l-0.514,1.814c-1.072-0.76-0.596-1.736-0.387-1.736
					H38.4c0.092-1,0.182-1.171,0.271-1.431c0.185-0.569,0.381-1.48,0.646-2.05c1.078-2.314,3.23-4.667,6.037-3.887
					c1.892,0.525,3.071,1.542,3.241,2.929c0.202,1.7-1.329,2.363-2.256,3.065C44.505,31.786,42.013,31.778,39.317,31.778z
					 M44.227,25.851c-1.822,0-2.977,2.145-3.309,2.861c-0.225,0.479-0.396,0.994-0.576,1.531c-0.094,0.277-0.184,0.553-0.283,0.827
					l-0.063,0.168c-0.021,0.059-0.056,0.135-0.082,0.215c2.061-0.104,3.988-0.737,5.363-1.777c1.039-0.779,1.635-1.625,1.564-2.207
					c-0.109-0.941-1.521-1.403-1.95-1.522C44.66,25.878,44.436,25.851,44.227,25.851z"/>
			</g>
		</g>
	</g>
</g>
</svg>
