<?xml version="1.0" encoding="utf-8"?>
<!-- Generator: Adobe Illustrator 16.2.0, SVG Export Plug-In . SVG Version: 6.00 Build 0)  -->
<!DOCTYPE svg PUBLIC "-//W3C//DTD SVG 1.1//EN" "http://www.w3.org/Graphics/SVG/1.1/DTD/svg11.dtd">
<svg version="1.1" id="Layer_1" xmlns="http://www.w3.org/2000/svg" xmlns:xlink="http://www.w3.org/1999/xlink" x="0px" y="0px"
	 width="79px" height="88px" viewBox="0 0 79 88" enable-background="new 0 0 79 88" xml:space="preserve">
<g>
	<g opacity="0.75">
		<path fill="#C76C9D" d="M23.688,38.735h0.104c-2.809,0-5.183,2.134-5.183,4.941c0,2.811,2.374,5.087,5.183,5.087
			c-0.219,0.03-0.104,0-0.104,0c0.609,0,1.104-0.494,1.104-1.104v-7.82C24.792,39.229,24.298,38.735,23.688,38.735"/>
		<path fill="#C76C9D" d="M47.153,31.108c-11.309,7.833-15.937,6.842-18.957,6.897h-0.624c-0.686,0-1.241,0.556-1.241,1.241v9.059
			c0,0.687,0.556,1.241,1.241,1.241h0.624c1.061,0.045,2.473-0.133,5.051,0.338v8.857c0,0.446,0.36,0.809,0.808,0.809h3.785
			c0.445,0,0.806-0.362,0.806-0.809V51.56c2.436,1.023,5.155,2.563,8.508,4.886c0,0,2.27,0.957,2.27-2.269v-8.653v-1.428v-1.19
			v-3.661v-5.868C49.423,30.149,47.153,31.108,47.153,31.108"/>
		<path fill="#C76C9D" d="M53.834,38.167c-0.448,0-0.889-0.251-1.162-0.719c-0.438-0.752-0.272-1.778,0.367-2.293l6.076-4.878
			c0.642-0.513,1.517-0.32,1.955,0.431c0.438,0.752,0.273,1.779-0.367,2.293l-6.076,4.879
			C54.385,38.074,54.108,38.167,53.834,38.167z"/>
		<path fill="#C76C9D" d="M60.291,57.117c-0.187,0-0.377-0.043-0.559-0.136l-6.459-3.283c-0.712-0.362-1.04-1.333-0.73-2.17
			c0.309-0.836,1.137-1.225,1.85-0.857l6.459,3.283c0.712,0.362,1.039,1.333,0.73,2.17C61.352,56.746,60.835,57.117,60.291,57.117z"
			/>
		<path fill="#C76C9D" d="M53.832,45.978c-0.757,0-1.381-0.705-1.404-1.599c-0.023-0.911,0.586-1.672,1.362-1.7l7.15-0.255
			c0.798-0.062,1.426,0.688,1.448,1.598c0.023,0.911-0.586,1.672-1.362,1.7l-7.15,0.255C53.861,45.978,53.848,45.978,53.832,45.978z
			"/>
	</g>
	<g>
		<g>
			<path fill="#FFFFFF" d="M22.688,37.735h0.104c-2.809,0-5.183,2.134-5.183,4.941c0,2.811,2.374,5.087,5.183,5.087
				c-0.219,0.03-0.104,0-0.104,0c0.609,0,1.104-0.494,1.104-1.104v-7.82C23.792,38.229,23.298,37.735,22.688,37.735"/>
			<path fill="#FFFFFF" d="M46.153,30.108c-11.309,7.833-15.937,6.842-18.957,6.897h-0.624c-0.686,0-1.241,0.556-1.241,1.241v9.059
				c0,0.687,0.556,1.241,1.241,1.241h0.624c1.061,0.045,2.473-0.133,5.051,0.338v8.857c0,0.446,0.36,0.809,0.808,0.809h3.785
				c0.445,0,0.806-0.362,0.806-0.809V50.56c2.436,1.023,5.155,2.563,8.508,4.886c0,0,2.27,0.957,2.27-2.269v-8.653v-1.428v-1.19
				v-3.661v-5.868C48.423,29.149,46.153,30.108,46.153,30.108"/>
			<path fill="#FFFFFF" d="M52.834,37.167c-0.448,0-0.889-0.251-1.162-0.719c-0.438-0.752-0.272-1.778,0.367-2.293l6.076-4.878
				c0.642-0.513,1.517-0.32,1.955,0.431c0.438,0.752,0.273,1.779-0.367,2.293l-6.076,4.879
				C53.385,37.074,53.108,37.167,52.834,37.167z"/>
			<path fill="#FFFFFF" d="M59.291,56.117c-0.187,0-0.377-0.043-0.559-0.136l-6.459-3.283c-0.712-0.362-1.04-1.333-0.73-2.17
				c0.309-0.836,1.137-1.225,1.85-0.857l6.459,3.283c0.712,0.362,1.039,1.333,0.73,2.17C60.352,55.746,59.835,56.117,59.291,56.117z
				"/>
			<path fill="#FFFFFF" d="M52.832,44.978c-0.757,0-1.381-0.705-1.404-1.599c-0.023-0.911,0.586-1.672,1.362-1.7l7.15-0.255
				c0.798-0.062,1.426,0.688,1.448,1.598c0.023,0.911-0.586,1.672-1.362,1.7l-7.15,0.255C52.861,44.978,52.848,44.978,52.832,44.978
				z"/>
		</g>
	</g>
</g>
</svg>
