<?xml version="1.0" encoding="utf-8"?>
<!-- Generator: Adobe Illustrator 16.2.0, SVG Export Plug-In . SVG Version: 6.00 Build 0)  -->
<!DOCTYPE svg PUBLIC "-//W3C//DTD SVG 1.1//EN" "http://www.w3.org/Graphics/SVG/1.1/DTD/svg11.dtd">
<svg version="1.1" id="Layer_1" xmlns="http://www.w3.org/2000/svg" xmlns:xlink="http://www.w3.org/1999/xlink" x="0px" y="0px"
	 width="79px" height="88px" viewBox="0 0 79 88" enable-background="new 0 0 79 88" xml:space="preserve">
<g>
	<g opacity="0.75">
		<circle fill-rule="evenodd" clip-rule="evenodd" fill="#C76C9D" cx="40.689" cy="35.91" r="7.981"/>
		<path fill="#C76C9D" d="M40.689,48.699c-1.474,0-2.894-2.813-4.233-2.603c-5.701,0.904-9.912,4.682-10.247,13.682H55.17
			c-0.335-9-4.559-12.787-10.273-13.684C43.564,45.886,42.152,48.699,40.689,48.699z"/>
	</g>
	<g>
		<g>
			<g>
				<circle fill-rule="evenodd" clip-rule="evenodd" fill="#FFFFFF" cx="39.689" cy="34.91" r="7.981"/>
				<g>
					<path fill="#FFFFFF" d="M39.689,47.699c-1.474,0-2.894-2.813-4.233-2.603c-5.701,0.904-9.912,4.682-10.247,13.682H54.17
						c-0.335-9-4.559-12.787-10.273-13.684C42.564,44.886,41.152,47.699,39.689,47.699z"/>
				</g>
			</g>
		</g>
	</g>
</g>
</svg>
