<?xml version="1.0" encoding="utf-8"?>
<!-- Generator: Adobe Illustrator 16.2.0, SVG Export Plug-In . SVG Version: 6.00 Build 0)  -->
<!DOCTYPE svg PUBLIC "-//W3C//DTD SVG 1.1//EN" "http://www.w3.org/Graphics/SVG/1.1/DTD/svg11.dtd">
<svg version="1.1" id="Layer_1" xmlns="http://www.w3.org/2000/svg" xmlns:xlink="http://www.w3.org/1999/xlink" x="0px" y="0px"
	 width="128px" height="88px" viewBox="0 0 128 88" enable-background="new 0 0 128 88" xml:space="preserve">
<g>
	<g>
		<rect x="-1" y="-2" fill-rule="evenodd" clip-rule="evenodd" fill="#939598" width="129" height="72"/>
	</g>
	<linearGradient id="SVGID_1_" gradientUnits="userSpaceOnUse" x1="63.5" y1="41.0005" x2="63.5" y2="96.7323">
		<stop  offset="0" style="stop-color:#FCFCFC"/>
		<stop  offset="0.3122" style="stop-color:#EDEDED"/>
		<stop  offset="1" style="stop-color:#BFBFBF"/>
	</linearGradient>
	<rect x="-1" y="-1" fill-rule="evenodd" clip-rule="evenodd" fill="url(#SVGID_1_)" width="129" height="88"/>
	<g>
		<g>
			<path fill="#E03A95" d="M86.236,31.868L64.568,13.313c-0.066-0.056-0.141-0.098-0.213-0.151c-0.055-0.04-0.107-0.082-0.168-0.118
				c-0.084-0.05-0.17-0.087-0.26-0.129c-0.066-0.03-0.129-0.066-0.195-0.09c-0.084-0.032-0.172-0.05-0.254-0.072
				c-0.174-0.042-0.352-0.072-0.529-0.085c-0.061-0.004-0.117-0.014-0.176-0.014c-0.082,0-0.166,0.014-0.248,0.023
				c-0.082,0.006-0.16,0.006-0.24,0.022c-0.078,0.014-0.156,0.04-0.23,0.06c-0.084,0.022-0.168,0.04-0.25,0.069
				c-0.07,0.03-0.141,0.066-0.209,0.1c-0.082,0.038-0.164,0.074-0.244,0.121c-0.066,0.04-0.125,0.09-0.188,0.136
				c-0.061,0.043-0.125,0.078-0.182,0.128l-21.67,18.555c-1.131,0.969-1.246,2.654-0.258,3.763c0.99,1.108,2.711,1.223,3.842,0.252
				l1.871-1.598v15.651c0,3.687,3.061,6.685,6.822,6.685h4.066c1.508,0,2.725-1.193,2.725-2.668V41.365
				c0-0.745,0.619-1.352,1.377-1.352h6.029c0.762,0,1.383,0.606,1.383,1.352v12.281c0,0.181,0.016,0.359,0.055,0.542l0.066,0.309
				c0.264,1.239,1.375,2.124,2.668,2.124h4c3.764,0,6.828-2.998,6.828-6.685V34.285l1.865,1.598
				c0.518,0.443,1.154,0.661,1.791,0.661c0.758,0,1.512-0.311,2.053-0.913C87.484,34.522,87.369,32.837,86.236,31.868L86.236,31.868
				z M86.236,31.868"/>
		</g>
	</g>
</g>
</svg>
