<?xml version="1.0" encoding="utf-8"?>
<!-- Generator: Adobe Illustrator 16.2.0, SVG Export Plug-In . SVG Version: 6.00 Build 0)  -->
<!DOCTYPE svg PUBLIC "-//W3C//DTD SVG 1.1//EN" "http://www.w3.org/Graphics/SVG/1.1/DTD/svg11.dtd">
<svg version="1.1" id="Layer_1" xmlns="http://www.w3.org/2000/svg" xmlns:xlink="http://www.w3.org/1999/xlink" x="0px" y="0px"
	 width="128.527px" height="87.824px" viewBox="0 0 128.527 87.824" enable-background="new 0 0 128.527 87.824"
	 xml:space="preserve">
<g>
	<g>
		<rect x="0.945" y="-0.176" fill-rule="evenodd" clip-rule="evenodd" fill="#939598" width="127" height="72"/>
	</g>
	<linearGradient id="SVGID_1_" gradientUnits="userSpaceOnUse" x1="64.9453" y1="42.8247" x2="64.9453" y2="98.5565">
		<stop  offset="0" style="stop-color:#FCFCFC"/>
		<stop  offset="0.3122" style="stop-color:#EDEDED"/>
		<stop  offset="1" style="stop-color:#BFBFBF"/>
	</linearGradient>
	<rect x="0.945" y="0.824" fill-rule="evenodd" clip-rule="evenodd" fill="url(#SVGID_1_)" width="128" height="88"/>
	<g>
		<path fill-rule="evenodd" clip-rule="evenodd" fill="#E03A95" d="M53.418,47.66h13.488v-2.699H53.418V47.66z M53.418,42.26h13.488
			v-2.703H53.418V42.26z M83.092,20.687h-8.086v-5.4H45.332c-1.486,0-2.699,1.213-2.699,2.7v37.759c0,1.484,1.213,2.7,2.699,2.7
			h37.76c1.488,0,2.701-1.216,2.701-2.7V23.373C85.793,21.885,84.58,20.687,83.092,20.687L83.092,20.687z M81.336,53.984H47.09
			V19.743h25.217V47.66h2.699V25.131h6.33V53.984z M53.418,36.856h13.488V26.073H53.418V36.856z M53.418,36.856"/>
	</g>
</g>
</svg>
