<?xml version="1.0" encoding="utf-8"?>
<!-- Generator: Adobe Illustrator 16.2.0, SVG Export Plug-In . SVG Version: 6.00 Build 0)  -->
<!DOCTYPE svg PUBLIC "-//W3C//DTD SVG 1.1//EN" "http://www.w3.org/Graphics/SVG/1.1/DTD/svg11.dtd">
<svg version="1.1" id="Layer_1" xmlns="http://www.w3.org/2000/svg" xmlns:xlink="http://www.w3.org/1999/xlink" x="0px" y="0px"
	 width="128.527px" height="87.824px" viewBox="0 0 128.527 87.824" enable-background="new 0 0 128.527 87.824"
	 xml:space="preserve">
<g>
	<g>
		<rect x="0.473" y="-1.176" fill-rule="evenodd" clip-rule="evenodd" fill="#939598" width="129" height="72"/>
	</g>
	<linearGradient id="SVGID_1_" gradientUnits="userSpaceOnUse" x1="64.9727" y1="41.8247" x2="64.9727" y2="97.5565">
		<stop  offset="0" style="stop-color:#FCFCFC"/>
		<stop  offset="0.3122" style="stop-color:#EDEDED"/>
		<stop  offset="1" style="stop-color:#BFBFBF"/>
	</linearGradient>
	<rect x="0.473" y="-0.176" fill-rule="evenodd" clip-rule="evenodd" fill="url(#SVGID_1_)" width="129" height="88"/>
	<g>
		<path fill="#E03A95" d="M83.473,53.414c0,1.574-0.578,3.41-2.15,3.41H53.895c-1.574,0-4.422-1.836-4.422-3.41v-37.51
			c0-1.574,2.848-3.08,4.422-3.08h27.428c1.572,0,2.15,1.506,2.15,3.08V53.414z"/>
		<g>
			<g>
				<path fill="#ECF8FE" d="M68.207,37.592l-5.742,1.536l-2.213-1.276l-2.287-1.145l4.477-2.508l5.766,1.546
					c0.117,0.03,0.23,0.046,0.348,0.046c0.59,0,1.131-0.396,1.295-0.995c0.191-0.716-0.234-1.45-0.947-1.646l-3.162-0.844
					l2.914-1.676c0.641-0.369,0.861-1.187,0.498-1.83c-0.375-0.645-1.189-0.866-1.834-0.496l-2.922,1.678l0.848-3.164
					c0.188-0.716-0.232-1.452-0.951-1.646c-0.713-0.184-1.449,0.233-1.639,0.953l-1.543,5.74l-2.203,1.266l-2.082,1.188v-4.928
					l4.219-4.223c0.523-0.524,0.523-1.374,0-1.897c-0.525-0.522-1.373-0.522-1.896,0l-2.322,2.324v-3.375
					c0-0.74-0.605-1.343-1.346-1.343c-0.742,0-1.344,0.603-1.344,1.343v3.359l-2.307-2.309c-0.523-0.522-1.371-0.522-1.896,0
					c-0.525,0.523-0.525,1.373,0,1.897l4.203,4.205v4.945l-2.07-1.188l-2.203-1.269l-1.539-5.737
					c-0.193-0.72-0.926-1.137-1.641-0.953c-0.719,0.194-1.143,0.931-0.949,1.646l0.846,3.164l-2.92-1.678
					c-0.645-0.37-1.465-0.148-1.834,0.496c-0.367,0.644-0.145,1.461,0.502,1.83l2.908,1.676l-3.158,0.844
					c-0.721,0.195-1.145,0.93-0.949,1.646c0.156,0.6,0.699,0.995,1.291,0.995c0.121,0,0.236-0.016,0.354-0.046l5.77-1.546
					l2.188,1.257l2.299,1.191l-4.516,2.484l-5.74-1.54c-0.715-0.188-1.457,0.233-1.645,0.946c-0.195,0.717,0.229,1.453,0.949,1.645
					l3.148,0.845l-2.906,1.679c-0.639,0.373-0.861,1.191-0.492,1.833c0.254,0.433,0.705,0.671,1.168,0.671
					c0.225,0,0.457-0.056,0.666-0.178l2.924-1.688l-0.852,3.176c-0.193,0.717,0.23,1.452,0.949,1.643
					c0.119,0.035,0.232,0.048,0.348,0.048c0.592,0,1.133-0.396,1.293-0.996l1.549-5.767l2.197-1.27l2.066-1.204v4.99l-4.203,4.205
					c-0.525,0.524-0.525,1.374,0,1.896c0.26,0.263,0.607,0.392,0.953,0.392c0.338,0,0.686-0.129,0.943-0.392l2.307-2.307v3.356
					c0,0.742,0.602,1.342,1.344,1.342c0.74,0,1.346-0.6,1.346-1.342v-3.371l2.322,2.321c0.262,0.263,0.6,0.392,0.947,0.392
					c0.342,0,0.689-0.129,0.949-0.392c0.523-0.522,0.523-1.372,0-1.896l-4.219-4.224v-5.012l2.082,1.244l2.201,1.27l1.545,5.767
					c0.156,0.601,0.697,0.996,1.293,0.996c0.113,0,0.229-0.013,0.346-0.048c0.719-0.19,1.143-0.926,0.951-1.643l-0.85-3.176
					l2.92,1.688c0.209,0.122,0.439,0.178,0.67,0.178c0.463,0,0.916-0.238,1.16-0.671c0.371-0.642,0.15-1.46-0.488-1.833
					l-2.904-1.679l3.15-0.845c0.713-0.189,1.141-0.928,0.947-1.645C69.656,37.825,68.924,37.404,68.207,37.592L68.207,37.592z
					 M57.566,37.852"/>
			</g>
		</g>
		<g>
			<defs>
				<rect id="SVGID_7_" x="36.473" y="12.824" width="13" height="44"/>
			</defs>
			<clipPath id="SVGID_2_">
				<use xlink:href="#SVGID_7_"  overflow="visible"/>
			</clipPath>
			<g clip-path="url(#SVGID_2_)">
				<g>
					<path fill="#E03A95" d="M68.207,37.592l-5.742,1.536l-2.213-1.276l-2.287-1.145l4.477-2.508l5.766,1.546
						c0.117,0.03,0.23,0.046,0.348,0.046c0.59,0,1.131-0.396,1.295-0.995c0.191-0.716-0.234-1.45-0.947-1.646l-3.162-0.844
						l2.914-1.676c0.641-0.369,0.861-1.187,0.498-1.83c-0.375-0.645-1.189-0.866-1.834-0.496l-2.922,1.678l0.848-3.164
						c0.188-0.716-0.232-1.452-0.951-1.646c-0.713-0.184-1.449,0.233-1.639,0.953l-1.543,5.74l-2.203,1.266l-2.082,1.188v-4.928
						l4.219-4.223c0.523-0.524,0.523-1.374,0-1.897c-0.525-0.522-1.373-0.522-1.896,0l-2.322,2.324v-3.375
						c0-0.74-0.605-1.343-1.346-1.343c-0.742,0-1.344,0.603-1.344,1.343v3.359l-2.307-2.309c-0.523-0.522-1.371-0.522-1.896,0
						c-0.525,0.523-0.525,1.373,0,1.897l4.203,4.205v4.945l-2.07-1.188l-2.203-1.269l-1.539-5.737
						c-0.193-0.72-0.926-1.137-1.641-0.953c-0.719,0.194-1.143,0.931-0.949,1.646l0.846,3.164l-2.92-1.678
						c-0.645-0.37-1.465-0.148-1.834,0.496c-0.367,0.644-0.145,1.461,0.502,1.83l2.908,1.676l-3.158,0.844
						c-0.721,0.195-1.145,0.93-0.949,1.646c0.156,0.6,0.699,0.995,1.291,0.995c0.121,0,0.236-0.016,0.354-0.046l5.77-1.546
						l2.188,1.257l2.299,1.191l-4.516,2.484l-5.74-1.54c-0.715-0.188-1.457,0.233-1.645,0.946c-0.195,0.717,0.229,1.453,0.949,1.645
						l3.148,0.845l-2.906,1.679c-0.639,0.373-0.861,1.191-0.492,1.833c0.254,0.433,0.705,0.671,1.168,0.671
						c0.225,0,0.457-0.056,0.666-0.178l2.924-1.688l-0.852,3.176c-0.193,0.717,0.23,1.452,0.949,1.643
						c0.119,0.035,0.232,0.048,0.348,0.048c0.592,0,1.133-0.396,1.293-0.996l1.549-5.767l2.197-1.27l2.066-1.204v4.99l-4.203,4.205
						c-0.525,0.524-0.525,1.374,0,1.896c0.26,0.263,0.607,0.392,0.953,0.392c0.338,0,0.686-0.129,0.943-0.392l2.307-2.307v3.356
						c0,0.742,0.602,1.342,1.344,1.342c0.74,0,1.346-0.6,1.346-1.342v-3.371l2.322,2.321c0.262,0.263,0.6,0.392,0.947,0.392
						c0.342,0,0.689-0.129,0.949-0.392c0.523-0.522,0.523-1.372,0-1.896l-4.219-4.224v-5.012l2.082,1.244l2.201,1.27l1.545,5.767
						c0.156,0.601,0.697,0.996,1.293,0.996c0.113,0,0.229-0.013,0.346-0.048c0.719-0.19,1.143-0.926,0.951-1.643l-0.85-3.176
						l2.92,1.688c0.209,0.122,0.439,0.178,0.67,0.178c0.463,0,0.916-0.238,1.16-0.671c0.371-0.642,0.15-1.46-0.488-1.833
						l-2.904-1.679l3.15-0.845c0.713-0.189,1.141-0.928,0.947-1.645C69.656,37.825,68.924,37.404,68.207,37.592L68.207,37.592z
						 M57.566,37.852"/>
				</g>
			</g>
		</g>
		<path fill="#ECF8FE" d="M81.473,29.806c0,0.685-0.082,1.019-0.768,1.019h-0.521c-0.684,0-1.711-0.334-1.711-1.019v-10.52
			c0-0.685,1.027-1.462,1.711-1.462h0.521c0.686,0,0.768,0.777,0.768,1.462V29.806z"/>
	</g>
</g>
</svg>
