<?xml version="1.0" encoding="utf-8"?>
<!-- Generator: Adobe Illustrator 16.2.0, SVG Export Plug-In . SVG Version: 6.00 Build 0)  -->
<!DOCTYPE svg PUBLIC "-//W3C//DTD SVG 1.1//EN" "http://www.w3.org/Graphics/SVG/1.1/DTD/svg11.dtd">
<svg version="1.1" id="Layer_1" xmlns="http://www.w3.org/2000/svg" xmlns:xlink="http://www.w3.org/1999/xlink" x="0px" y="0px"
	 width="52.431px" height="52.429px" viewBox="0 0 52.431 52.429" enable-background="new 0 0 52.431 52.429" xml:space="preserve">
<g>
	<circle fill="#E03A95" cx="26.215" cy="26.215" r="26.215"/>
	<g>
		<path fill="#FFFFFF" d="M26.727,17.088c-1.066,0-1.977-0.326-2.734-0.98c-0.757-0.652-1.135-1.58-1.135-2.774
			c0-1.085,0.387-1.977,1.163-2.678c0.775-0.701,1.678-1.052,2.706-1.052c0.99,0,1.867,0.317,2.635,0.953
			c0.766,0.637,1.148,1.562,1.148,2.776c0,1.177-0.373,2.099-1.121,2.76C28.642,16.757,27.754,17.088,26.727,17.088z M30.51,24.51
			v13.997c0,1.521-0.363,2.672-1.092,3.451c-0.729,0.778-1.654,1.168-2.776,1.168c-1.121,0-2.032-0.399-2.733-1.195
			c-0.701-0.798-1.051-1.938-1.051-3.424V24.732c0-1.503,0.35-2.635,1.051-3.395c0.701-0.762,1.612-1.141,2.733-1.141
			c1.122,0,2.047,0.379,2.776,1.141C30.146,22.098,30.51,23.156,30.51,24.51z"/>
	</g>
</g>
</svg>
