<?xml version="1.0" encoding="utf-8"?>
<!-- Generator: Adobe Illustrator 16.2.0, SVG Export Plug-In . SVG Version: 6.00 Build 0)  -->
<!DOCTYPE svg PUBLIC "-//W3C//DTD SVG 1.1//EN" "http://www.w3.org/Graphics/SVG/1.1/DTD/svg11.dtd">
<svg version="1.1" id="Layer_1" xmlns="http://www.w3.org/2000/svg" xmlns:xlink="http://www.w3.org/1999/xlink" x="0px" y="0px"
	 width="52.431px" height="52.429px" viewBox="0 0 52.431 52.429" enable-background="new 0 0 52.431 52.429" xml:space="preserve">
<g>
	<g>
		<g>
			<circle fill="#E03A95" cx="26.215" cy="26.215" r="26.215"/>
		</g>
		<g>
			<g>
				<path fill="#FFFFFF" d="M29.725,48.73c-5.221,1.249-10.442,0.9-15.146-0.718c5.145,2.748,11.271,3.701,17.389,2.237
					c13.094-3.133,21.229-16.147,18.402-29.239C51.26,33.718,42.717,45.621,29.725,48.73z"/>
			</g>
		</g>
		<polygon fill="#FFFFFF" points="18.219,9.58 26.242,10.093 22.582,44.633 17.74,44.208 		"/>
	</g>
	<path fill="#FFFFFF" d="M28.992,11.46l-0.467,7.631c0,0,8.023,0.854,4.719,7.321c0,0-1.752,2.938-5.957,3.441l-0.379,4.012
		l6.646-1.488c0,0,7.721-2.665,8.381-10.002c0,0,1.153-6.46-5.408-9.177C36.527,13.198,33.491,11.348,28.992,11.46z"/>
</g>
</svg>
