<?xml version="1.0" encoding="utf-8"?>
<!-- Generator: Adobe Illustrator 16.2.0, SVG Export Plug-In . SVG Version: 6.00 Build 0)  -->
<!DOCTYPE svg PUBLIC "-//W3C//DTD SVG 1.1//EN" "http://www.w3.org/Graphics/SVG/1.1/DTD/svg11.dtd">
<svg version="1.1" id="Layer_1" xmlns="http://www.w3.org/2000/svg" xmlns:xlink="http://www.w3.org/1999/xlink" x="0px" y="0px"
	 width="52.431px" height="52.429px" viewBox="0 0 52.431 52.429" enable-background="new 0 0 52.431 52.429" xml:space="preserve">
<g>
	<circle fill="#E03A95" cx="26.215" cy="26.215" r="26.215"/>
	<g>
		<path fill="#FFFFFF" d="M28.633,10.662c0,0,0.949-0.084,0.949,1.189v1.885c0,0-0.482,0.934-1.416,0.934l-8.576,0.934
			c0,0-1.273-0.073-1.211,1.177c0,0-0.88,11.789,0.139,17.646c0,0-0.037,0.811,1.066,0.979c0,0,7.807,1.908,8.953,1.908
			c0,0,0.763-0.191,0.763,1.019l-0.065,2.31c0,0,0,0.701-0.7,0.637c0,0-9.649-1.082-11.112-1.592c0,0-2.61-0.254-2.801-3.946
			c0,0-1.465-13.238,0.318-21.322c0,0,0.453-1.974,3.635-2.482C18.574,11.936,25.281,10.599,28.633,10.662z"/>
		<path fill="#FFFFFF" d="M32.582,21.992l-6.658,1.019c0,0-3.838,0.445-3.646,3.246c0,0-0.295,2.1,3.523,2.737l6.472,1.146
			l0.116,4.137c0,0,0.44,1.464,1.904,0.255l8.846-7.638c0,0,0.698-0.891-0.065-1.782c0,0-6.646-7.32-9.065-8.084
			c0,0-1.426-0.764-1.426,0.954V21.992z"/>
	</g>
</g>
</svg>
