<?xml version="1.0" encoding="utf-8"?>
<!-- Generator: Adobe Illustrator 16.2.0, SVG Export Plug-In . SVG Version: 6.00 Build 0)  -->
<!DOCTYPE svg PUBLIC "-//W3C//DTD SVG 1.1//EN" "http://www.w3.org/Graphics/SVG/1.1/DTD/svg11.dtd">
<svg version="1.1" id="Layer_1" xmlns="http://www.w3.org/2000/svg" xmlns:xlink="http://www.w3.org/1999/xlink" x="0px" y="0px"
	 width="52.431px" height="52.429px" viewBox="0 0 52.431 52.429" enable-background="new 0 0 52.431 52.429" xml:space="preserve">
<g>
	<circle fill="#E03A95" cx="26.215" cy="26.215" r="26.215"/>
	<g>
		<path fill="#FFFFFF" d="M16.588,17.791c0-1.264,0.406-2.545,1.219-3.843c0.811-1.298,1.996-2.372,3.553-3.224
			c1.557-0.853,3.375-1.278,5.449-1.278c1.932,0,3.635,0.356,5.111,1.067c1.479,0.713,2.619,1.681,3.424,2.905
			s1.209,2.555,1.209,3.993c0,1.131-0.23,2.122-0.689,2.975c-0.459,0.852-1.006,1.587-1.637,2.206
			c-0.633,0.618-1.768,1.66-3.404,3.124c-0.453,0.412-0.814,0.776-1.088,1.088c-0.273,0.313-0.477,0.6-0.609,0.858
			c-0.133,0.26-0.236,0.519-0.309,0.779c-0.074,0.259-0.184,0.715-0.33,1.367c-0.252,1.384-1.045,2.076-2.375,2.076
			c-0.693,0-1.275-0.226-1.748-0.679c-0.471-0.452-0.707-1.125-0.707-2.017c0-1.118,0.172-2.086,0.518-2.904
			c0.348-0.818,0.807-1.538,1.379-2.156c0.572-0.619,1.344-1.354,2.314-2.206c0.852-0.745,1.469-1.308,1.848-1.688
			c0.379-0.379,0.699-0.801,0.959-1.267c0.258-0.467,0.389-0.972,0.389-1.519c0-1.063-0.396-1.962-1.188-2.694
			c-0.793-0.732-1.814-1.099-3.066-1.099c-1.463,0-2.541,0.37-3.232,1.108c-0.693,0.738-1.277,1.827-1.758,3.264
			c-0.451,1.504-1.311,2.256-2.574,2.256c-0.746,0-1.375-0.263-1.887-0.788C16.844,18.973,16.588,18.403,16.588,17.791z
			 M26.33,39.672c-0.811,0-1.52-0.263-2.125-0.788c-0.605-0.526-0.908-1.262-0.908-2.207c0-0.838,0.293-1.543,0.877-2.116
			c0.586-0.572,1.305-0.858,2.156-0.858c0.84,0,1.545,0.286,2.117,0.858c0.572,0.573,0.857,1.278,0.857,2.116
			c0,0.932-0.299,1.664-0.898,2.196C27.809,39.405,27.115,39.672,26.33,39.672z"/>
	</g>
</g>
</svg>
