<?xml version="1.0" encoding="utf-8"?>
<!-- Generator: Adobe Illustrator 16.2.0, SVG Export Plug-In . SVG Version: 6.00 Build 0)  -->
<!DOCTYPE svg PUBLIC "-//W3C//DTD SVG 1.1//EN" "http://www.w3.org/Graphics/SVG/1.1/DTD/svg11.dtd">
<svg version="1.1" id="Layer_1" xmlns="http://www.w3.org/2000/svg" xmlns:xlink="http://www.w3.org/1999/xlink" x="0px" y="0px"
	 width="128.527px" height="87.824px" viewBox="0 0 128.527 87.824" enable-background="new 0 0 128.527 87.824"
	 xml:space="preserve">
<g>
	<g>
		<rect x="0.527" y="-1.176" fill-rule="evenodd" clip-rule="evenodd" fill="#939598" width="128" height="72"/>
	</g>
	<linearGradient id="SVGID_1_" gradientUnits="userSpaceOnUse" x1="64.5273" y1="41.8247" x2="64.5273" y2="97.5565">
		<stop  offset="0" style="stop-color:#FCFCFC"/>
		<stop  offset="0.3122" style="stop-color:#EDEDED"/>
		<stop  offset="1" style="stop-color:#BFBFBF"/>
	</linearGradient>
	<rect x="0.527" y="-0.176" fill-rule="evenodd" clip-rule="evenodd" fill="url(#SVGID_1_)" width="128" height="88"/>
	<g>
		<polygon fill="#E03A95" points="68.471,26.818 70.549,10.519 84.061,16.834 71.469,32.922 		"/>
		<g>
			<path fill="#E03A95" d="M84.807,45.301c-0.262-3.088-1.162-6.477-2.533-8.477h-0.318c-0.201,0-0.461-0.07-0.752-0.098
				c-0.324-0.031-0.693-0.091-1.049-0.091c-0.643,0-0.996,0.103-1.045,0.329c-0.068,0.309,0.338,1.046,0.582,1.489
				c0.141,0.256,0.268,0.489,0.352,0.685c0.049,0.113,1.17,2.758,0.398,3.932c-0.346,0.525-0.969,0.691-1.76,0.436
				c-2.438-0.801-3.805-2.974-5.014-4.892l-0.266-0.413c-1.615-2.535-2.934-3.674-3.52-3.674c-0.068,0-0.227,0.001-0.422,0.359
				c-0.395,0.741-0.176,2.068,0,3.133c0.049,0.293,0.096,0.568,0.125,0.814c0.018,0.132,0.041,0.283,0.068,0.445
				c0.16,0.995,0.359,2.233-0.252,2.947c-0.248,0.293-0.85,0.621-1.752,0.369c-1-0.282-1.889-1.024-2.67-1.677
				c-0.201-0.168-0.398-0.331-0.586-0.479c-1.604-1.254-3.182-1.573-4.76-0.943c-1.271,0.509-2.322,1.577-3.434,2.709
				c-1.594,1.618-3.24,3.292-5.662,3.292c-0.426,0-0.867-0.053-1.311-0.16c-1.168-0.28-2.045-0.774-2.619-1.469
				c-0.068,0.46-0.139,0.918-0.178,1.388c-2.086,0.977-3.547,3.222-3.547,5.837c0,3.505,2.629,6.353,5.873,6.353
				c1.654,0,3.146-0.745,4.213-1.933c1.068,1.188,2.561,1.933,4.217,1.933s3.148-0.745,4.213-1.933
				c1.07,1.188,2.563,1.933,4.217,1.933c1.652,0,3.15-0.745,4.215-1.933c1.068,1.188,2.561,1.933,4.213,1.933
				c1.66,0,3.152-0.745,4.221-1.933c1.064,1.188,2.559,1.933,4.211,1.933c3.242,0,5.873-2.819,5.873-6.328
				C88.354,48.5,86.891,46.283,84.807,45.301z"/>
			<path fill="#F287B5" d="M49.512,43.112c2.387,0.565,4.08-1.034,5.818-2.803c1.15-1.17,2.342-2.382,3.854-2.985
				c1.982-0.788,4.018-0.408,5.963,1.116c0.199,0.155,0.402,0.325,0.615,0.502c0.691,0.577,1.473,1.229,2.219,1.438
				c0.305,0.086,0.473,0.034,0.492,0.018c0.244-0.288,0.063-1.419-0.025-1.962c-0.029-0.179-0.055-0.343-0.072-0.485
				c-0.029-0.233-0.072-0.495-0.119-0.77c-0.207-1.249-0.463-2.803,0.129-3.911c0.447-0.827,1.063-1.002,1.498-1.002
				c1.229,0,2.76,1.426,4.553,4.238l0.266,0.421c1.152,1.827,2.344,3.717,4.363,4.378c0.15,0.05,0.246,0.061,0.301,0.061
				c0.262-0.223,0.061-1.613-0.445-2.785c-0.07-0.166-0.182-0.367-0.303-0.584c-0.404-0.743-0.865-1.587-0.701-2.344
				c0.189-0.861,0.943-1.301,2.238-1.301c0.229,0,0.463,0.015,0.691,0.029c-4.668-7.559-11.998-8.817-13.66-9.01
				c-0.143-0.012-0.291-0.012-0.434-0.022c-0.545,2.648-2.893,4.645-5.699,4.645c-1.848,0-3.477-0.881-4.545-2.227
				c-4.568,2.661-8.031,7.26-9.449,12.782c0.012,0.372,0.061,0.729,0.201,1.043C47.6,42.334,48.336,42.829,49.512,43.112z"/>
			<path fill="#FFFFFF" d="M65.527,23.049c0.072,0.361,0.121,0.733,0.121,1.127c0,0.39-0.064,0.759-0.154,1.119
				c0.043,0,0.082-0.005,0.123-0.005c0.172,0,0.338,0.02,0.508,0.027c0.082-0.367,0.135-0.748,0.135-1.142L65.527,23.049z"/>
			<path fill="#E03A95" d="M65.527,22.011c-0.248-1.224-0.898-2.223-1.848-2.834c-0.539-0.35-1.021-0.501-1.625-0.212
				c-0.537,0.256-0.939,0.53-1.414,0.312c-0.471-0.216-0.93-0.33-1.324-0.33c-0.215,0-0.398,0.033-0.549,0.1
				c-1.535,0.647-2.314,2.023-2.314,4.093c0,1.155,0.445,2.201,1.152,3.01c0.842,0.964,2.066,1.587,3.447,1.587
				c2.145,0,3.938-1.484,4.441-3.478c0.09-0.361,0.154-0.73,0.154-1.119C65.648,22.745,65.6,22.372,65.527,22.011z"/>
		</g>
		<path fill="#E03A95" d="M60.604,19.22c-0.09-0.08-0.158-0.189-0.186-0.329c-0.223-1.211-0.689-4.549,0.688-5.753
			c0.205-0.177,0.422-0.059,0.525,0.16c0.139,0.288-0.041,0.488-0.184,0.72c-0.318,0.508-0.637,1.768,0.053,4.769
			C61.637,19.37,60.953,19.525,60.604,19.22z"/>
		<g>
			<defs>
				<polygon id="SVGID_3_" points="68.471,26.818 70.549,10.519 84.061,16.834 71.469,32.922 				"/>
			</defs>
			<clipPath id="SVGID_2_">
				<use xlink:href="#SVGID_3_"  overflow="visible"/>
			</clipPath>
			<g clip-path="url(#SVGID_2_)">
				<line fill="none" stroke="#FFFFFF" stroke-width="0.5" stroke-miterlimit="10" x1="73.289" y1="7.048" x2="82.93" y2="17.992"/>
				
					<line fill="none" stroke="#FFFFFF" stroke-width="0.5" stroke-miterlimit="10" x1="65.939" y1="7.374" x2="80.314" y2="25.019"/>
				
					<line fill="none" stroke="#FFFFFF" stroke-width="0.5" stroke-miterlimit="10" x1="64.959" y1="14.236" x2="76.068" y2="27.635"/>
				
					<line fill="none" stroke="#FFFFFF" stroke-width="0.5" stroke-miterlimit="10" x1="83.912" y1="12.438" x2="71.166" y2="26.816"/>
				<line fill="none" stroke="#FFFFFF" stroke-width="0.5" stroke-miterlimit="10" x1="81.133" y1="7.8" x2="66.105" y2="24.893"/>
				
					<line fill="none" stroke="#FFFFFF" stroke-width="0.5" stroke-miterlimit="10" x1="75.512" y1="5.353" x2="64.133" y2="18.521"/>
			</g>
		</g>
	</g>
</g>
</svg>
