<?xml version="1.0" encoding="utf-8"?>
<!-- Generator: Adobe Illustrator 16.2.0, SVG Export Plug-In . SVG Version: 6.00 Build 0)  -->
<!DOCTYPE svg PUBLIC "-//W3C//DTD SVG 1.1//EN" "http://www.w3.org/Graphics/SVG/1.1/DTD/svg11.dtd">
<svg version="1.1" id="Layer_1" xmlns="http://www.w3.org/2000/svg" xmlns:xlink="http://www.w3.org/1999/xlink" x="0px" y="0px"
	 width="128.527px" height="87.824px" viewBox="0 0 128.527 87.824" enable-background="new 0 0 128.527 87.824"
	 xml:space="preserve">
<g>
	<g>
		<rect y="-1.176" fill-rule="evenodd" clip-rule="evenodd" fill="#939598" width="129" height="72"/>
	</g>
	<linearGradient id="SVGID_1_" gradientUnits="userSpaceOnUse" x1="64.5" y1="41.8247" x2="64.5" y2="97.5565">
		<stop  offset="0" style="stop-color:#FCFCFC"/>
		<stop  offset="0.3122" style="stop-color:#EDEDED"/>
		<stop  offset="1" style="stop-color:#BFBFBF"/>
	</linearGradient>
	<rect y="-0.176" fill-rule="evenodd" clip-rule="evenodd" fill="url(#SVGID_1_)" width="129" height="88"/>
	<path fill="#E03A95" d="M91.227,14.996h-47.9l-4.563,7.249c0.006,2.459,2.045,4.448,4.563,4.448c1.363,0,2.584-0.587,3.42-1.516
		c0.836,0.929,2.059,1.516,3.422,1.516c1.365,0,2.586-0.587,3.422-1.516c0.836,0.929,2.057,1.516,3.422,1.516
		c1.363,0,2.586-0.587,3.422-1.516c0.836,0.929,2.057,1.516,3.42,1.516c1.365,0,2.586-0.587,3.422-1.516
		c0.836,0.929,2.057,1.516,3.422,1.516s2.586-0.587,3.422-1.516c0.836,0.929,2.057,1.516,3.422,1.516s2.584-0.587,3.42-1.516
		c0.836,0.929,2.057,1.516,3.424,1.516c1.365,0,2.584-0.587,3.42-1.516c0.836,0.929,2.057,1.516,3.422,1.516
		c2.516,0,4.555-1.989,4.563-4.448l0,0L91.227,14.996z"/>
	<path fill="#E03A95" d="M86.094,47.911h-22.24V35.087h22.24V47.911z M87.805,29.156c-1.029,0.672-2.207,1.036-3.422,1.036
		c-1.213,0-2.391-0.364-3.42-1.036c-1.031,0.672-2.209,1.036-3.424,1.036c-1.211,0-2.391-0.364-3.42-1.036
		c-1.029,0.672-2.209,1.036-3.422,1.036s-2.391-0.364-3.422-1.036c-1.031,0.672-2.209,1.036-3.422,1.036
		c-1.211,0-2.391-0.364-3.42-1.036c-1.031,0.672-2.209,1.036-3.422,1.036c-1.215,0-2.391-0.364-3.422-1.036
		c-1.031,0.672-2.209,1.036-3.422,1.036s-2.391-0.364-3.422-1.036c-1.029,0.672-2.209,1.036-3.422,1.036V55.16h5.133V35.087h10.264
		V55.16h32.508V30.192C90.014,30.192,88.834,29.828,87.805,29.156"/>
</g>
</svg>
