<?xml version="1.0" encoding="utf-8"?>
<!-- Generator: Adobe Illustrator 16.2.0, SVG Export Plug-In . SVG Version: 6.00 Build 0)  -->
<!DOCTYPE svg PUBLIC "-//W3C//DTD SVG 1.1//EN" "http://www.w3.org/Graphics/SVG/1.1/DTD/svg11.dtd">
<svg version="1.1" id="Layer_1" xmlns="http://www.w3.org/2000/svg" xmlns:xlink="http://www.w3.org/1999/xlink" x="0px" y="0px"
	 width="52.431px" height="52.429px" viewBox="0 0 52.431 52.429" enable-background="new 0 0 52.431 52.429" xml:space="preserve">
<g>
	<circle fill="#E03A95" cx="26.215" cy="26.215" r="26.215"/>
	<g>
		<path fill="#FFFFFF" d="M44.426,21.729c0-5.763-6.076-10.435-13.572-10.435s-13.57,4.672-13.57,10.435s6.074,10.434,13.57,10.434
			c1.367,0,2.687-0.156,3.932-0.444l5.26,3.506l-0.349-5.58C42.591,27.73,44.426,24.894,44.426,21.729z"/>
		<path fill="#E03A95" d="M38.874,19.431c0,0.657-0.532,1.19-1.189,1.19H23.063c-0.657,0-1.189-0.533-1.189-1.19v-0.619
			c0-0.657,0.532-1.19,1.189-1.19h14.621c0.657,0,1.189,0.533,1.189,1.19V19.431z"/>
		<path fill="#E03A95" d="M36.874,24.432c0,0.657-0.532,1.189-1.189,1.189H23.063c-0.657,0-1.189-0.533-1.189-1.189v-0.621
			c0-0.657,0.532-1.189,1.189-1.189h12.621c0.657,0,1.189,0.533,1.189,1.189V24.432z"/>
	</g>
	<g>
		<path fill="#E03A95" d="M6.808,27.635c0-6.221,6.468-11.265,14.446-11.265c7.979,0,14.447,5.044,14.447,11.265
			s-6.468,11.265-14.447,11.265c-1.455,0-2.859-0.17-4.186-0.48l-5.598,3.784l0.371-6.024C8.76,34.113,6.808,31.052,6.808,27.635z"
			/>
		<path fill="#FFFFFF" d="M6.813,27.836c0-5.763,6.077-10.436,13.572-10.436c7.496,0,13.571,4.673,13.571,10.436
			c0,5.762-6.075,10.434-13.571,10.434c-1.367,0-2.687-0.157-3.932-0.444l-5.26,3.506l0.349-5.581
			C8.647,33.837,6.813,31.001,6.813,27.836z"/>
		<path fill="#E03A95" d="M27.874,25.811c0-0.657-0.532-1.189-1.189-1.189H12.063c-0.657,0-1.189,0.533-1.189,1.189v0.621
			c0,0.657,0.532,1.189,1.189,1.189h14.621c0.657,0,1.189-0.532,1.189-1.189V25.811z"/>
		<path fill="#E03A95" d="M27.874,29.811c0-0.657-0.532-1.189-1.189-1.189H14.063c-0.657,0-1.189,0.532-1.189,1.189v0.621
			c0,0.657,0.532,1.189,1.189,1.189h12.621c0.657,0,1.189-0.532,1.189-1.189V29.811z"/>
	</g>
</g>
</svg>
